<?xml version="1.0" encoding="UTF-8"?>
<svg viewBox="0 0 461.65182 334.31577" xmlns="http://www.w3.org/2000/svg">
 <path d="m132.33 151.48c-4.0406 2.0203-111.12 69.701-111.12 69.701l30.305 38.386 181.83 40.406z" fill="#666"/>
 <path d="m294.96 32.785c-47.886 30.266-103.07 46.879-150.68 77.458-26.195 10.052-12.517 39.124-10.764 59.427-0.8612 22.595-2.4474 45.152-7.1086 67.281-4.2691 31.254 34.178 29.115 53.686 36.315 28.433 15.292 69.979 38.78 93.416 36.523 40.758-4.8644 65.183-39.994 100.17-57.714 20.033-20.951 59.488-27.375 62.83-58.075-6.6554-28.885-2.4025-66.507-16.943-93.11-14.92-21.709-24.16-46.831-39.622-68.082-15.94-21.73-37.072 1.3705-50.815 12.701-20.797 19.899-53.851 10.354-13.921-3.1066 8.878-4.1249 30.179-17.005 7.3656-10.728-9.017 1.8254-18.573 4.067-27.61 1.1097z" fill="#c1662b"/>
 <path d="m369.21 20.158c-39.027 32.034-90.436 45.223-129.17 77.234-59.355 11.652 28.829 49.025 25.677 82.551 10.16 40.936 7.7184 81.639 2.8857 123.48 38.363 6.3332 70.072-30.907 101.16-49.455 30.537-23.871 80.114-41.21 63.509-88.988 1.3456-35.555-10.899-66.883-31.141-95.802-10.513-16.568-16.563-36.935-32.92-49.024z" fill="#ecbf70"/>
 <path d="m266.68 185.82c-40.437-11.866-82.547-40.285-116.51-53.325-43.748-19.043-5.2858-10.522 34.611-28.529 30.131-5.2229 50.733-19.026 76.386-33.728 9.7256-5.9404 39.91-21.229 42.358-11.566-22.442 17.538-67.254 34.904-88.144 49.799-3.2865 8.3696 33.981 42.15 45.046 63.256 2.2926 3.3134 5.642 10.071 6.2558 14.092z" fill="#610709"/>
 <g transform="translate(-56.156 -270.31)">
  <path d="m186.51 387.65c5.9198 4.1611 12.135 7.874 18.302 11.652 10.456 6.5347 21.44 12.165 32.554 17.48 15.327 7.4635 30.832 14.553 46.182 21.97 13.491 6.496 27.374 12.092 41.525 16.964 0.17248 0.10022-1.2449 2.5394-1.4174 2.4392-14.297-4.7916-28.306-10.377-41.868-16.991-15.318-7.4456-30.761-14.632-46.034-22.167-11.131-5.4233-22.148-11.13-32.595-17.797-6.1764-3.8567-12.451-7.6136-18.206-12.091-0.10314-0.11011 1.4541-1.5687 1.5572-1.4586z"/>
  <path d="m184.92 389.91c0.70235 8.1023 1.9162 16.147 2.9161 24.215 1.373 11.423 1.0876 22.939 0.7019 34.409-0.47688 9.9458-0.62063 19.899-0.59076 29.854 0.0458 7.6138 0.38162 15.215-0.28895 22.808-0.56753 4.707-1.4197 9.3978-2.3348 14.052-0.40182 2.2953-0.8001 4.5576-1.4396 6.7972-0.40043 2.1223-0.78021 2.693 1.4444 3.403 8.434 1.9146 16.532 5.0507 24.578 8.169 15.24 6.524 30.348 13.36 45.441 20.218 14.423 6.6454 29.205 12.426 44.009 18.152 8.8277 3.1769 17.627 6.382 25.925 10.791 0.13086 0.0994-1.2747 1.95-1.4055 1.8506-8.37-4.1413-17.154-7.2378-25.95-10.345-14.919-5.6017-29.77-11.381-44.252-18.051-15.046-6.8343-30.075-13.715-45.212-20.345-8.0127-3.2112-16.071-6.3321-24.386-8.6791-0.49339-0.28078-1.0477-0.47458-1.4802-0.84234-1.4616-1.2429-1.1078-3.1664-0.75792-4.799 0.60491-2.1978 0.93769-4.4133 1.3072-6.6647 0.83855-4.6009 1.665-9.2245 2.1858-13.87 0.59938-7.5379 0.18825-15.081 0.12405-22.634-0.0678-9.9812 0.0745-19.961 0.49063-29.934 0.34574-11.361 0.65029-22.764-0.65295-34.082-0.95634-8.1424-2.205-16.271-2.5159-24.472 0-0.15162 2.1442-0.15162 2.1442 0z"/>
  <path d="m323.33 459.96c0.45919 13.512 1.5582 26.993 2.295 40.491 0.80639 14.702 0.69736 29.426 0.15311 44.133-0.51532 7.2288-0.29125 14.485-0.65638 21.716-0.44717 4.2732-0.47219 8.6222-1.5182 12.805-0.62531 1.4617-0.28876 0.77958-0.99175 2.0551-0.0619 0.1364-1.9908-0.73881-1.929-0.8752 0.58078-1.0357 0.30745-0.50075 0.8168-1.6066 0.95807-4.0769 0.7986-8.3279 1.2898-12.473 0.33053-7.2195 0.0805-14.461 0.43383-21.683 0.29583-14.649 0.21558-29.305-0.5464-43.941-0.68177-13.528-1.7522-27.07-1.5265-40.621 0-0.15413 2.1796-0.15413 2.1796 0z"/>
  <path d="m327.3 581.17c8.509-3.03 17.113-5.9043 25.381-9.5628 2.2259-0.98489 4.3955-2.0924 6.5932-3.1387 12.182-6.0528 22.601-14.821 33.333-23.027 2.6467-2.0238 5.328-4.0019 7.992-6.0029 12.454-8.9944 25.655-16.877 38.559-25.193 10.435-6.7248 9.8437-6.4323 20.041-13.455 8.6604-6.2814 17.056-12.947 24.713-20.434 2.9773-2.9112 6.963-7.1039 9.4741-10.61 0.83019-1.1593 1.4479-2.4568 2.1718-3.6853 0.0727-0.15906 2.3221 0.86874 2.2494 1.0278-0.72276 1.3566-1.3222 2.7864-2.1683 4.0697-2.4734 3.7512-6.3314 7.9944-9.3994 11.103-7.6115 7.7126-16.071 14.498-24.806 20.887-10.059 6.9482-9.8169 6.903-20.118 13.53-12.868 8.2777-26.071 16.051-38.563 24.9-2.6735 1.9686-5.3672 3.9099-8.0204 5.9057-10.936 8.2267-21.511 17.087-33.839 23.233-2.2409 1.0642-4.4505 2.1971-6.7228 3.1926-8.3493 3.6577-17.064 6.5294-25.781 9.157-0.13415 0.0771-1.2245-1.8202-1.0903-1.8972z"/>
  <path d="m325.78 454.09c10.039-4.1518 19.862-8.7957 29.591-13.622 16.91-8.9302 33.421-18.582 49.83-28.393 11.261-6.5195 21.983-13.902 32.521-21.52 1.3698-1.4599 3.3564-2.3176 4.8309-3.6376 0.0531-0.0475 0.0159-0.15154 0.0643-0.20373 0.2775-0.29883 0.59814-0.55449 0.89721-0.83174 3.7376-2.3599 7.6875-4.4217 11.689-6.302 3.4178-1.3186 6.6643-2.9229 9.7906-4.8204 1.4825-1.0482 3.0914-1.9581 4.8323-2.4928 1.9916-0.36176 3.5395 1.0839 5.3945 1.541 1.3821 0.35955 2.8321-0.13374 4.2165 0.19181 1.1644 0.27381 1.7624 0.94849 2.647 1.679 4.1556 5.7699 4.3385 13.336 5.0094 20.164 1.2688 11.934 2.525 23.869 3.6923 35.814 1.228 9.4205 0.90476 18.895 0.88857 28.356 0.0815 4.9341 0.41558 9.858 0.49958 14.792 0.0335 2.0106-0.0656 4.0185-0.18292 6.0246-6e-3 0.14805-2.0998 0.0636-2.0938-0.0845 0.0736-1.9666 0.0978-3.9344 0.0493-5.9021-0.11695-4.9452-0.4943-9.8767-0.64197-14.821-0.10155-9.3935 0.0606-18.801-1.1628-28.146-1.192-11.946-2.4071-23.89-3.5683-35.839-0.53793-6.3288-0.55299-13.381-4.0884-18.902-2.3748-1.974-3.3976-0.78233-6.2531-1.4502-0.52989-0.16832-2.8621-0.97297-3.1976-1.4158-0.0509-0.0672 0.30247-0.0803 0.22546-0.11464-0.15881-0.0708-0.34753-0.0114-0.5213-0.0172-1.5912 0.23672-3.0085 1.4228-4.3208 2.2582-3.1493 1.9827-6.4139 3.6904-9.9001 5.0206-3.8773 1.8351-7.6615 3.8698-11.438 5.9009-1.1068 0.75201-0.29399 0.11038-1.3487 1.275-1.1687 1.2905-3.0746 2.3604-4.2855 3.6705-10.33 7.9776-21.082 15.421-32.317 22.072-16.415 9.9527-33.005 19.628-50.077 28.421-9.8876 4.7895-19.866 9.4554-30.211 13.184-0.13073 0.0751-1.1932-1.7736-1.0624-1.8487z"/>
  <path d="m321.74 453.72c-3.4858-6.558-7.7504-12.674-12.013-18.744-6.0805-8.7122-12.928-16.825-19.77-24.937-5.5317-7.0078-11.022-14.061-15.816-21.601-1.5553-2.9315-4.4918-5.8358-4.5569-9.3466 0.39742-2.2649 2.3346-2.789 4.1908-3.5892 4.9741-1.4941 9.2462-4.487 13.642-7.1558 11.325-7.1521 23.376-13.083 35.237-19.282 15.811-8.1601 31.682-16.237 46.924-25.431 7.3196-4.3182 14.182-9.3354 21.584-13.513 2.9671-1.3912 5.6584-3.2604 8.2902-5.1932 2.8757-2.4293 6.0163-4.5031 9.2612-6.3994 3.4155-2.0022 6.853-3.9542 10.451-5.6077 0.44937-0.22615 0.89694-0.4559 1.3481-0.67844 0.27497-0.13563 2.9964-1.7701 3.1366-1.8013 0.49738-0.11069 1.0159-0.0808 1.5238-0.12114 0.41485 0.29148 0.86198 0.54171 1.2446 0.87442 1.0633 0.92478 2.2087 2.4237 3.0548 3.4633 2.7044 3.323 5.2057 6.7854 7.754 10.229 6.6737 8.781 13.282 17.582 18.995 27.025 3.7223 6.2884 6.295 13.139 8.8454 19.958 0.9254 2.5154 2.7456 4.4979 4.1588 6.7299 1.9036 3.1132 3.0564 6.6418 4.4221 10.018 0.81464 2.0837 1.4544 4.2134 2.1029 6.3501 0.35054 0.79194 0.72916 1.5562 1.1601 2.3072 0.0619 0.13692-1.8745 1.0118-1.9364 0.87487-0.46472-0.86798-0.9018-1.7423-1.2575-2.6622-0.64727-2.0827-1.3411-4.1378-2.1675-6.1593-1.3561-3.2691-2.4069-6.7147-4.2447-9.7467-1.4684-2.3369-3.3502-4.4188-4.3665-7.0264-2.6862-6.6422-5.333-13.336-9.0119-19.51-5.7267-9.3603-12.336-18.082-18.874-26.885-3.3949-4.7022-6.6116-9.6001-10.545-13.875 0.14646-0.0728 0.27602-0.22615 0.43939-0.21835s-0.29757 0.13006-0.43273 0.21866c-0.91542 0.60014-1.6956 1.1806-2.681 1.6878-0.46918 0.2415-0.93316 0.49295-1.3997 0.73942-3.5353 1.6532-6.937 3.5495-10.298 5.5356-3.2078 1.8235-6.3201 3.8323-9.1354 6.2284-2.6751 1.9778-5.4203 3.8776-8.3998 5.3746-7.2614 4.3399-13.972 9.4914-21.199 13.891-15.161 9.4315-31.05 17.595-46.985 25.631-11.903 6.0845-24.006 11.867-35.425 18.834-4.5189 2.6387-8.9281 5.6613-14.022 7.0744-1.1864 0.50507-2.6794 0.60998-3.3015 1.8214-0.14153 2.0337 3.7084 6.4963 4.5734 8.2333 4.8839 7.3824 10.326 14.367 15.856 21.273 6.8896 8.154 13.749 16.34 19.814 25.141 4.2634 6.1624 8.6037 12.361 11.806 19.158 0.0574 0.13993-1.9214 0.95211-1.9789 0.81218z"/>
  <path d="m193.65 388.4c10.191-2.7479 20.171-6.157 30.126-9.6498 12.722-4.5437 25.426-9.1258 38.326-13.141 7.32-2.3933 14.659-4.7329 22.052-6.8901 0.95764-0.20151 1.9122-0.41695 2.8648-0.64092 0.12802-0.0701 1.1196 1.7404 0.99154 1.8105-0.90278 0.33869-1.8147 0.63966-2.7717 0.79536-7.2879 2.406-14.61 4.7047-21.865 7.2126-12.845 4.0892-25.493 8.7357-38.205 13.217-10.047 3.4653-20.111 6.9416-30.517 9.1872-0.13444 0.0709-1.1366-1.8304-1.0022-1.9012z"/>
  <path d="m283.16 358.92c6.3606-4.1911 12.853-8.1887 19.508-11.896 1.5972-0.85634 3.1773-1.7455 4.7916-2.569 5.5019-2.8066 5.469-2.5725 11.196-5.2916 6.2778-2.9804 12.416-6.2306 18.561-9.4717 12.251-6.3499 24.349-12.953 36.231-19.968 8.1994-4.7636 16.664-9.1181 25.428-12.75 2.1854-0.6554 4.3409-1.7237 6.3183-2.7025-1.1009-1.3744 0.0224 1.2956-0.46025 1.4373-0.30192 0.0886-0.61843 0.11644-0.92765 0.17466-0.3722 0.0946-0.74932 0.17159-1.1166 0.28373-1.0031 0.30624-1.9839 0.68112-2.9791 1.012-5.0284 1.9641-10.242 3.3531-15.429 4.8243-6.1117 1.9839-12.389 3.208-18.755 3.963-2.8641 0.27128-5.8009 0.61659-8.6352-0.043-0.80691-0.13464-1.6903-0.29344-2.5111-0.18002-0.0444 6e-3 -0.0243 0.0986-0.0648 0.11769-0.22228 0.10493-0.46444 0.16119-0.69666 0.24178-2.235 0.84907-4.2358 2.1998-6.2737 3.4283-5.6513 3.4046-11.564 6.3397-17.408 9.3939-8.3629 4.2517-16.611 8.7217-24.906 13.103-5.9178 3.2857-12.043 6.1771-18.17 9.0467-4.1863 2.2304-8.6915 3.5229-13.253 4.7066-4.8004 1.1037-9.238 3.1573-13.508 5.555-3.7082 1.8604-7.5513 3.4608-11.412 4.9786-4.0278 1.3967-7.7886 3.3533-11.472 5.473-4.5165 2.5014-8.815 5.3588-13.099 8.234-2.5507 1.8003-5.1232 3.4947-7.8511 5.0077-2.7648 1.8522-5.4366 3.8126-8.2891 5.5336-5.0251 2.9908-10.245 5.6516-15.452 8.3099-2.6144 1.4627-5.9704 2.8527-8.2908 4.3621-0.0557 0.1344-1.9563-0.65276-1.9006-0.78715 1.5166-2.6689 6.4132-3.7198 8.737-5.4945 5.1795-2.6536 10.479-5.0908 15.46-8.1061 2.8973-1.6826 5.6213-3.5974 8.3857-5.4851 1.0785-0.61097 2.2554-1.1384 3.2766-1.8429 1.4753-1.0179 2.8161-2.2468 4.3852-3.1359 4.2798-2.9658 8.6243-5.8449 13.185-8.3645 3.7746-2.1444 7.6305-4.1225 11.733-5.575 3.774-1.4974 7.5427-3.0451 11.179-4.8523 4.3929-2.5147 8.952-4.7137 13.918-5.8539 4.4574-1.1131 8.8811-2.2695 12.937-4.5118 6.059-2.921 12.112-5.8669 17.982-9.1548 8.294-4.3978 16.517-8.9304 24.925-13.11 5.8538-2.9955 11.787-5.8432 17.494-9.1145 2.1594-1.2418 4.2664-2.6261 6.5902-3.5423 1.7144-0.66046 3.4402-0.71747 5.2168-0.27927 2.3207 0.38974 4.6741 0.0182 6.9946-0.20405 6.2555-0.80239 12.439-1.9656 18.456-3.9117 5.1834-1.4367 10.412-2.7307 15.445-4.6457 1.2-0.37122 6.0428-2.2656 7.1857-1.5357 0.56623 0.36163 0.70586 1.1434 1.0588 1.7151-1.6688 1.8725-4.5496 2.4132-6.7064 3.4733-8.5956 3.7318-16.898 8.1507-24.995 12.855-11.881 7.086-23.987 13.745-36.278 20.095-6.191 3.2546-12.374 6.529-18.713 9.4904-6.0495 2.826-5.3559 2.2507-11.148 5.1304-1.6157 0.8033-3.1967 1.6746-4.7951 2.5118-6.6691 3.6166-13.108 7.6201-19.627 11.5-0.11162 0.103-1.5683-1.4756-1.4566-1.5786z"/>
  <path d="m353.21 324.72c3.7492 1.5307 7.5653 3 11.485 4.0374l1.0093 0.39666c0.12902 0.0768-0.95699 1.9014-1.086 1.8246l-0.89724-0.27764c-4.0477-1.0305-8.0305-2.4488-11.79-4.2663-0.12124-0.0904 1.1575-1.8051 1.2788-1.7147z"/>
  <path d="m202.26 391.8c0.65431 2.5249 0.30847 1.1967 1.0386 3.9842 0.0329 0.15583-2.1708 0.62177-2.2038 0.46593-0.70468-2.8792-0.38574-1.4803-0.965-4.195-0.018-0.15063 2.1122-0.40575 2.1302-0.25512z"/>
  <path d="m208.15 384.86c-0.0584 5.701 0.51997 11.37 1.0518 17.038l0.15978 1.9526c0.0127 0.15642-2.1995 0.33584-2.2122 0.17942l-0.21613-1.9369c-0.63566-5.7228-1.2768-11.465-0.92757-17.233 0-0.15162 2.1442-0.15162 2.1442 0z"/>
  <path d="m212.20284,386.04091c.14228,5.70254.12449,11.40848.0364,17.11176 .1627,1.61519.0133.91408.35352,2.12129 .0356.14545-2.02143.64828-2.05698.50283-.47185-1.56306-.27034-.69366-.53121-2.62412-.0881-5.70328-.10591-11.40922.0364-17.11176 0-.15287 2.16192-.15287 2.16192,0z"/>
  <path d="m216.24 384.02c0.16001 6.425 0.15419 12.853 0.059 19.279-0.0487 2.1018-0.0208 1.1677-0.0763 2.8025 0 0.15043-2.1274 0.15043-2.1274 0-0.0555-1.6348-0.0275-0.70072-0.0763-2.8025-0.0952-6.4259-0.10099-12.854 0.059-19.279 0-0.15287 2.1619-0.15287 2.1619 0z"/>
  <path d="m220.28 384.02c0.19704 7.3878 0.16605 14.779 0.10006 22.169 0.16101 1.5976-0.27746 3.1994 0.0251 4.7797 0.0275 0.14601-2.0373 0.53429-2.0648 0.38829-0.41718-1.7025-0.25644-3.42-0.32234-5.168-0.066-7.3894-0.097-14.781 0.10006-22.169 0-0.15287 2.1619-0.15287 2.1619 0z"/>
  <path d="m225.5 381.89c1.1571 8.1402 1.1162 16.376 1.4684 24.572 0.14822 2.7422 0.21355 5.4714 0.66489 8.181 0.0246 0.15424-2.1567 0.50172-2.1813 0.34748-0.58873-2.7816-0.80021-5.5903-0.94511-8.4318-0.41113-8.1462-0.41719-16.314-1.1581-24.443-0.0159-0.15211 2.1353-0.37765 2.1512-0.22553z"/>
  <path d="m231.4 381.16c0.0762 9.2636 0.71195 18.508 1.1546 27.759 0.21355 2.5202 0.0323 5.0438 0.30846 7.5559 0.0203 0.15074-2.1116 0.43719-2.1318 0.28644-0.51806-2.5502-0.45862-5.1405-0.68603-7.7301-0.54463-9.2782-1.22-18.572-0.82483-27.871 0-0.15413 2.1796-0.15413 2.1796 0z"/>
  <path d="m240.49 374.93c0.39026 9.4054-0.29914 18.809-0.79649 28.198-0.18431 3.7483-0.42733 7.4958-0.49277 11.249 3e-3 0.15187-2.1447 0.19649-2.1478 0.0446-0.24542-3.7961-0.0236-7.602 0.0922-11.399 0.42872-9.3629 1.0876-18.717 1.1829-28.092 0-0.15287 2.1619-0.15287 2.1619 0z"/>
  <path d="m244.52 376.78c0.23752 9.2663 0.23567 18.537 0.22917 27.806 0.0658 4.2098 0.25989 8.4175 0.60386 12.614 0.18437 2.2492 0.0148 1.4708 0.4767 2.9918 0.0401 0.14573-2.0208 0.71292-2.061 0.56719-1.7935-5.1082-1.0667-10.882-1.6222-16.173-6e-3 -9.2688-8e-3 -18.539 0.22918-27.806 0-0.15162 2.1442-0.15162 2.1442 0z"/>
  <path d="m251.6 375.94c0.22969 9.7312 0.24113 19.466 0.239 29.2 0.24153 6.4797-0.54089 13.01 0.21722 19.466 0.0193 0.15483-2.1703 0.42761-2.1896 0.27278-1.1528-6.5057-0.39813-13.171-0.66752-19.739-2e-3 -9.7334 9e-3 -19.469 0.239-29.2 0-0.15287 2.1619-0.15287 2.1619 0z"/>
  <path d="m258.66 370.71c0.23122 9.7115 0.24777 19.427 0.27887 29.141-0.0518 8.0173-0.17102 16.033 0.51946 24.027 0.0152 0.16085-2.2595 0.37596-2.2747 0.21512-1.1115-8.0364-0.98101-16.146-0.94676-24.242 0.0311-9.7138 0.0477-19.429 0.27888-29.141 0-0.15162 2.1442-0.15162 2.1442 0z"/>
  <path d="m265.75 373.08c-0.26085 11.846-1.0761 23.669-1.7286 35.498-0.24662 5.6812-0.67577 11.36-0.43567 17.05 0.0938 2.2223 0.14846 4.5938 1.0552 6.6542 0.053 0.14329-1.9734 0.89319-2.0264 0.7499-1.0712-2.3531-1.3441-4.755-1.5268-7.343-0.40547-5.7448-0.0328-11.494 0.17696-17.238 0.64264-11.798 1.4403-23.588 2.3056-35.371 0-0.15413 2.1796-0.15413 2.1796 0z"/>
  <path d="m270.96 370.78c1.1606 11.069 1.6596 22.211 2.167 33.328 0.76008 8.3993 0.41472 17.041 2.2635 25.319 0.0313 0.15251-2.1255 0.59561-2.1569 0.44309-2.2217-8.3337-2.1298-17.125-2.8465-25.657-0.49654-11.07-0.98692-22.142-1.5783-33.206-0.0159-0.15211 2.1353-0.37765 2.1512-0.22553z"/>
  <path d="m279.03 393.82c0.9954 7.1913 1.2198 14.461 1.7361 21.697 0.27673 5.5508 0.5928 11.091 1.2984 16.606 0.0199 0.14999-2.1011 0.4321-2.1211 0.28212-1.043-5.5253-1.296-11.137-1.616-16.74-0.52289-7.1948-0.77895-14.404-1.4278-21.589-0.018-0.15063 2.1122-0.40575 2.1302-0.25512z"/>
  <path d="m286.1 405.94c0.93016 7.6915 1.4869 15.434 2.0375 23.163 0.23537 4.4516 0.52779 8.9342 0.0591 13.38-0.01 0.1514-2.151 0.011-2.141-0.14041 0.2126-4.3641-0.11188-8.733-0.37796-13.088-0.58419-7.6863-1.1617-15.372-1.7078-23.06-0.018-0.15063 2.1122-0.40575 2.1302-0.25512z"/>
  <path d="m293.02 412.3c0.17525 7.4098 0.15243 14.823 0.132 22.234 0.0527 2.9165 0.26445 5.8324 0.8274 8.6964 0.0281 0.14858-2.0731 0.54656-2.1013 0.39798-0.7552-2.9742-1.0532-6.0297-1.152-9.0943-0.0204-7.4113-0.0433-14.824 0.132-22.234 0-0.15287 2.1619-0.15287 2.1619 0z"/>
  <path d="m297.21 420.08c0.71834 5.871 1.6415 11.717 2.2121 17.606 0.25232 2.1344 0.65349 4.2462 0.92174 6.3781 0.0182 0.14896-2.0884 0.40651-2.1066 0.25756-0.35852-2.1478-0.816-4.2784-1.111-6.437-0.64085-5.8558-1.622-11.67-2.0465-17.55-0.018-0.15064 2.1122-0.40576 2.1302-0.25513z"/>
  <path d="m302.28 424.5c1.4062 7.0778 2.2566 14.253 2.4917 21.463l0.12279 1.871c0.0118 0.15621-2.1974 0.32332-2.2092 0.1671l-0.22112-1.9454c-0.4538-7.1518-1.3054-14.266-2.3553-21.354-0.0143-0.15353 2.1569-0.35593 2.1712-0.2024z"/>
  <path d="m306.32 430.37c0.67478 5.2319 1.0274 10.494 1.6366 15.734 0.017 0.16399-2.3022 0.40456-2.3192 0.24056-0.68571-5.234-1.0632-10.487-1.4686-15.749-0.016-0.15211 2.1353-0.37765 2.1512-0.22553z"/>
  <path d="m312.3658,439.27774c.40498,2.34968.64387,4.72191.88649,7.09218 .0137.16059-2.25751.35395-2.27118.19335-.23575-2.34486-.48038-4.68865-.74556-7.03041-.018-.15063 2.11222-.40575 2.13025-.25512z"/>
  <path d="m316.2397,442.43576c.30269,2.79412.13659,1.31766.50272,4.4289 .0146.16015-2.25034.36623-2.26492.20608-.31909-3.21064-.19633-1.66528-.38201-4.63498 0-.15162 2.14421-.15162 2.14421,0z"/>
  <path d="m276 368.57c0.7106 4.4804 1.0191 9.0111 1.1752 13.541 6e-3 0.15982-2.254 0.24507-2.2601 0.0853-0.24806-4.4641-0.59526-8.9223-1.0453-13.371-0.018-0.15064 2.1122-0.40576 2.1302-0.25513z"/>
  <path d="m284.93 363.82c0.0777 2.7726 0.0796 5.5463 0.0848 8.3197 0 0.16487-2.3316 0.16487-2.3316 0 5e-3 -2.7734 7e-3 -5.5471 0.0849-8.3197 0-0.15287 2.1619-0.15287 2.1619 0z"/>
  <path d="m290.99 358.59c0.0861 3.0426-5e-3 6.0804 0.21811 9.1166 0.0108 0.1579-2.2222 0.31064-2.233 0.15274-0.27422-3.086-0.21923-6.1731-0.12928-9.2693 0-0.15162 2.1442-0.15162 2.1442 0z"/>
  <path d="m297.06 354.73c0.0665 3.2457 0.0412 1.5486 0.0703 5.0914 0 0.1628-2.3024 0.1628-2.3024 0 0.029-3.5428 4e-3 -1.8457 0.0703-5.0914 0-0.15288 2.1619-0.15288 2.1619 0z"/>
  <path d="m301.09 350.51c0.0861 3.0426-5e-3 6.0804 0.21812 9.1166 0.0108 0.1579-2.2222 0.31064-2.233 0.15274-0.27422-3.086-0.21924-6.1731-0.12928-9.2693 0-0.15162 2.1442-0.15162 2.1442 0z"/>
  <path d="m305.13 349.5c0.0837 2.5973 0.0783 5.1962 0.0817 7.7944 0 0.16318-2.3077 0.16318-2.3077 0 3e-3 -2.5982-2e-3 -5.1971 0.0817-7.7944 0-0.15162 2.1442-0.15162 2.1442 0z"/>
  <path d="m312.2 344.45c0.10429 5.2064 0.16556 10.418 0.026 15.625 0 0.1553-2.1963 0.1553-2.1963 0-0.13953-5.2064-0.0783-10.418 0.026-15.625 0-0.15161 2.1442-0.15161 2.1442 0z"/>
  <path d="m318.26 344.45c-0.0966 2.4005-0.39918 4.7858-0.67059 7.1707-0.0155 0.16046-2.2847-0.0584-2.2692-0.21883 0.26897-2.3168 0.55221-4.6322 0.79562-6.9519 0-0.15161 2.1442-0.15161 2.1442 0z"/>
  <path d="m322.3 339.4c0.0851 3.1215 0.071 6.2444 0.0555 9.3667 0 0.15947-2.2552 0.15947-2.2552 0-0.0155-3.1222-0.0295-6.2452 0.0555-9.3667 0-0.15162 2.1442-0.15162 2.1442 0z"/>
  <path d="m326.52 337.44c0.52728 3.4515 0.82242 6.9306 1.0636 10.412 0.0102 0.16055-2.2604 0.30425-2.2706 0.14369-0.28105-3.4464-0.60796-6.8883-0.94429-10.33-0.016-0.15212 2.1353-0.37765 2.1512-0.22554z"/>
  <path d="m334.42 334.35c0.0997 4.0383 0.12123 8.08 0.0278 12.119 0 0.15556-2.1999 0.15556-2.1999 0-0.0934-4.0386-0.0719-8.0803 0.0278-12.119 0-0.15162 2.1442-0.15162 2.1442 0z"/>
  <path d="m339.48 330.48c0.11235 3.7857 0.0923 7.5736 0.0693 11.36 0 0.16267-2.3006 0.16267-2.3006 0-0.0229-3.7868-0.043-7.5746 0.0693-11.36 0-0.15287 2.1619-0.15287 2.1619 0z"/>
  <path d="m348.56 327.28c0.0702 2.5006 0.0739 5.0023 0.0806 7.5037 0 0.16302-2.3054 0.16302-2.3054 0 7e-3 -2.5014 0.0104-5.003 0.0806-7.5037 0-0.15162 2.1442-0.15162 2.1442 0z"/>
  <path d="m345.54 332.5c-0.0839 2.6692-0.38971 5.3239-0.66558 7.9779-0.0142 0.16242-2.3112-0.0387-2.297-0.20114 0.27155-2.5918 0.55665-5.1822 0.80064-7.7767 0-0.15287 2.1619-0.15287 2.1619 0z"/>
  <path d="m267.76 402.2c-0.0382 6.7717 0.59176 13.513 1.0829 20.26 0.19356 2.6029 0.30479 5.2109 0.18841 7.819-3e-3 0.15133-2.1435 0.10406-2.1402-0.0473 0.017-2.5455-0.17914-5.0811-0.39659-7.6164-0.57495-6.7896-1.2672-13.593-0.89651-20.415 0-0.15287 2.1619-0.15287 2.1619 0z"/>
  <path d="m280.91 393.33c3.5746-2.9081 7.5827-5.1526 11.55-7.4599 2.7585-1.5545 5.3441-3.3877 7.9127-5.2325 3.3786-2.3866 7.0312-4.3592 10.656-6.3416 4.2058-2.4498 8.1441-5.3074 12.175-8.0252 3.2814-2.5748 6.4776-5.2244 9.8767-7.6437 4.4157-2.973 9.0901-5.5425 13.717-8.1684 5.04-2.8925 9.8058-6.1996 14.604-9.4634 4.4537-3.1367 9.0028-6.14 13.638-9.0003 4.7133-2.738 9.5596-5.2309 14.462-7.6093 3.6371-1.5699 7.0604-3.5421 10.485-5.5176 3.3508-2.0274 6.6518-4.1363 10.014-6.1448 2.4972-1.7155 5.2725-2.8805 8.0594-4.019 1.4185-0.65096 2.7417-1.4533 4.0164-2.3473 1.7663-1.3801 3.7609-2.424 5.7887-3.3607 0.83829-0.48331 1.682-0.93831 2.5599-1.3441 0.12292-0.0843 1.3147 1.654 1.1918 1.7383-0.89104 0.37221-1.7113 0.84986-2.5291 1.366-1.9451 0.85338-3.8629 1.8295-5.5555 3.1222-1.3829 0.96088-2.7879 1.8444-4.3057 2.5863-2.6793 1.1565-5.3784 2.28-7.789 3.9608-3.383 1.992-6.688 4.1132-10.043 6.1528-3.4656 1.9774-6.8887 4.0323-10.553 5.6329-4.8319 2.3794-9.6149 4.8584-14.293 7.529-4.6296 2.8126-9.151 5.81-13.579 8.9302-4.846 3.2825-9.6001 6.6981-14.696 9.599-4.5851 2.5868-9.2415 5.0714-13.647 7.9582-3.4301 2.4045-6.6128 5.0793-9.8733 7.708-4.0829 2.7487-8.0686 5.6436-12.33 8.1187-3.5686 1.9337-7.1559 3.8705-10.52 6.145-2.608 1.8761-5.2435 3.7251-8.0078 5.3655-3.8513 2.3444-7.7863 4.5472-11.427 7.2235-0.10313 0.11011-1.6604-1.3485-1.5572-1.4586z"/>
  <path d="m272.13 359.03c4.1375-2.4003 8.5197-4.3262 12.499-6.9945 2.6519-2.0705 5.2599-4.1612 8.0893-5.9911 3.1846-1.9209 6.2403-4.0666 9.5055-5.8478 3.1209-1.4294 6.1088-3.0746 8.9897-4.9366 2.7059-2.0857 5.6989-3.719 8.6414-5.4332 2.9506-1.3234 5.8458-2.7547 8.7491-4.178 2.8582-1.8121 5.9027-3.249 8.9433-4.7246 3.8812-1.6384 7.833-3.0974 11.795-4.5267 3.2022-1.3666 6.5046-2.5928 9.4577-4.4588 2.1324-1.3224 4.3491-2.4734 6.6035-3.5686 0.12363-0.0907 1.4068 1.6577 1.2832 1.7484-2.1841 1.0735-4.3591 2.1474-6.4293 3.4352-3.0267 2.004-6.4361 3.3124-9.756 4.7495-3.8902 1.4476-7.8023 2.8364-11.645 4.4096-3.0405 1.4809-6.1425 2.8052-8.9609 4.6963-2.8679 1.3924-5.6907 2.8704-8.6402 4.0893-2.9081 1.7177-5.8955 3.3117-8.5667 5.4003-2.925 1.8826-5.9292 3.5997-9.1038 5.0332-3.2506 1.7095-6.2334 3.8996-9.4038 5.7543-2.8409 1.7774-5.4361 3.8379-8.0153 5.9697-3.9922 2.8271-8.4269 4.8401-12.756 7.0886-0.12125 0.0904-1.4-1.6243-1.2788-1.7147z"/>
  <path d="m342.82 510.88c1.7921 6.8788 2.5439 14.008 3.1667 21.077 0.24076 2.661 0.22288 5.3244 0.0909 7.9879-4e-3 0.15688-2.2229 0.0969-2.2186-0.06 0.036-2.5841-0.01-5.1671-0.27192-7.7416-0.67377-6.9498-1.4139-13.929-2.8578-20.765-0.0352-0.14784 2.0555-0.64569 2.0907-0.49785z"/>
  <path d="m339.94907,511.95884c-2.57483-.25606-5.12143.70344-7.68519.56403-.53075-.0289-1.20046.10112-1.5696-.28133-.41416-.42911-.25848-1.1644-.38772-1.7466 .39277-.44328.74154-.92984 1.17831-1.32983 1.04649-.95839 2.25377-1.73017 3.3041-2.68435 1.73568-1.57678 3.1697-3.297 4.60388-5.14361 2.41438-3.4017 3.70838-7.40076 5.42211-11.16702 .88027-2.17577 2.29991-5.46403 5.31055-3.9041 .53539.27741.85016.85535 1.27523,1.28302 2.61671,3.9497 5.51955,7.6565 9.24513,10.60348 2.59727,1.91388 5.65822,1.8409 8.63301,2.40713 2.73663,2.26774-4.09366,3.21895-4.9691,3.38456-2.09779.65444-4.35054.79042-6.403,1.57681-1.20161.40766-2.3879.85337-3.49657,1.47941-1.11655,1.41446-.1934,3.42673.46903,4.81974 2.1245,3.46113 3.32422,7.22519 4.15195,11.17353 .38735,2.99107.89406,5.95952.9015,8.98171-.0151.34341-.0249.6871-.0452,1.03024-.0187.31468-.0741.62776-.0717.94298 .004.53425.40786,1.00582.3346,1.54151-.0449.32837-.1956.63333-.2934.95-2.22647,1.73997-5.45457,2.60843-8.12813,3.52067-1.5936.55201-3.24219.77511-4.90983.92658-.14504.048-.82453-2.00324-.67948-2.05129 1.52503-.10906 3.02793-.30363 4.4881-.79308 1.66549-.53993 3.30899-1.1358 4.95984-1.71782 .70754-.24945 1.37242-.63913 2.10714-.79083 .0913-.0189.17933.051.26899.0765 .0463.0474.10286.19774.13897.14217 .004-.006-.65187-3.34037-.30195-3.76415-.038-2.90015-.58601-5.73496-.96324-8.60412-.8274-3.8145-1.98477-7.4438-4.00236-10.81507-.98472-2.34634-1.75518-5.09307.22131-7.16346 1.14882-.71264 2.4225-1.20811 3.69829-1.63422 2.13394-.94706 4.48458-1.14321 6.71319-1.82344 1.27646-.21185 2.52138-.45694 3.76622-.81396 .29829-.0856.68548-.50701.88988-.27351 .33074.37781.11995.99705.17992,1.49558l.20969.15576c-3.38844-.31501-6.65243-.75919-9.53034-2.80705-3.75416-3.05448-6.76358-6.77063-9.32631-10.87475l-.65882-.77428c.0591-.10081.24262-.20562.17721-.30244-.69473-1.02824-2.24684,3.14337-2.27955,3.19542-1.76989,3.89845-3.09524,8.03666-5.58162,11.56677-2.50116,3.28719-5.28991,6.51391-8.99221,8.48671-.23925-.21877-.46201-.45706-.71775-.65629-.4224-.32904 1.0733.0151 1.60574-.0414 2.41504-.25624 4.83404-.62874 7.27243-.42318 .14686.0377-.38638,2.11456-.53324,2.07685z"/>
  <path d="m348.97097,490.14533c-2.3223,5.13123-5.33338,9.90548-7.98573,14.8625-.74662,1.52593-1.567,3.001-2.54719,4.38761-.43764.6191-.90084,1.26426-1.02534,1.17496-.67387-.48337-1.05974-1.2759-1.58961-1.91385 .0245-.14839 2.12312.19831 2.09861.3467-.66512.0471-1.32947.10684-1.99536.14141-.0453.002.10012-.009.12851-.0445 .18684-.23254.33528-.49346.5023-.74062 .90918-1.34539 1.65383-2.77359 2.32968-4.25217 2.56427-4.99707 5.53701-9.77673 8.10527-14.77423 .0574-.13992 2.03629.67226 1.97886.81219z"/>
  <path d="m348.79 498.45c-2.9248 4.773-6.6021 9.0388-9.5487 13.793 0.0282 0.89343-1.0348-0.57301-1.0252-1.0659 0.01-0.51318 0.68975-0.76029 1.0361-1.1391 0.59715-0.65324 1.2084-1.2938 1.7943-1.9571 2.1258-2.4068 2.1022-2.462 4.1126-5.0478 3.0693-4.0191 6.3455-7.8612 9.6069-11.72 0.17657-0.17352 0.33259-0.67034 0.52969-0.52055 0.67345 0.51179 1.3481 1.2207 1.4891 2.0547 0.11234 0.66449-0.53394 1.2381-0.83005 1.8435-1.2339 2.5227-2.6674 4.953-4.0454 7.3978-2.5185 4.1129-5.3344 8.303-9.4057 11.029l-1.3213-2.1783c0.0476-0.14343 2.0761 0.53036 2.0285 0.67379l-2.1779-0.0448c3.7399-2.6881 6.3814-6.5864 8.7632-10.458l2.9102-5.0951c0.40045-0.7101 0.80176-1.4198 1.188-2.1378 0.28496-0.52971 0.30924-1.2957 0.82528-1.6047 0.64931-0.38884 1.5056-0.32645 2.2576-0.2415 0.19744 0.0223-0.25849 0.30181-0.38774 0.45271-3.0777 3.9778-6.402 7.7721-9.4201 11.801-1.9732 2.5187-2.1484 2.8497-4.2785 5.1592-0.60978 0.66113-1.2474 1.2962-1.8835 1.932-1.3816 1.3809-1.6657 2.3972-3.871 0.87134-0.25981-0.17976 0.0782-0.62702 0.11723-0.94053 2.6656-4.9218 6.4131-9.1713 9.5757-13.77 0.0646-0.13863 2.0252 0.77501 1.9606 0.91364z"/>
  <path d="m355.06 499.36c-2.8175 6.8805-6.4156 13.417-10.048 19.894-1.0564 1.4268-1.4375 3.2657-2.5031 4.687-0.0433 0.13889-2.0074-0.4732-1.9642-0.61209 0.32822-1.8193 1.7196-3.3386 2.2709-5.067 3.5286-6.473 7.0913-12.939 10.212-19.621 0.0508-0.14366 2.0825 0.57527 2.0317 0.71893z"/>
  <path d="m355.03 510.35c-1.8729 5.2786-5.1996 10.118-6.4318 15.611-0.0233 0.15277-2.1839-0.17753-2.1605-0.33031 0.86053-5.7514 4.4077-10.797 6.6135-16.093 0.0574-0.13993 2.0363 0.67225 1.9789 0.81218z"/>
  <path d="m356.04204,519.43975c-1.32983,4.67671-4.50633,8.94707-4.86873,13.86198 .89024-.0969-.45749.14727-.0451-.73367 .21863-.46708.78481-.66989 1.16042-1.02327 1.42193-1.33778 2.72851-2.69781 4.28658-3.87975 5.19425-1.86525.88637,6.1862.3972,7.38394-.32137.78689-.61625,1.58436-.92437,2.37653-.94446,2.83202-.54791,1.46306-1.21762,4.09869-.0313.15421-2.21225-.28904-2.1809-.44325 .65957-2.82603.26061-1.3705 1.22546-4.35867 .87209-2.22083 1.87517-4.37115 2.78134-6.57614 .14697-.35764.0572-.91075.40047-1.08869 .32071-.16623 2.21301.25541 1.07803.11058-1.35486,1.06882-4.75901,4.83847-5.9109,5.23258-.78128.26731-1.70263.34425-2.47658.0564-.45855-.17053-.50362-.8389-.75542-1.25834 .0261-.60702-.029-1.22301.0782-1.82104 .80665-4.49775 3.51426-8.47827 4.99308-12.75009 .0574-.13993 2.03629.67225 1.97886.81218z"/>
  <path d="m187.68 517.62c9.8537 4.0311 19.599 8.3099 29.32 12.65 0.15428 0.1058-1.342 2.2877-1.4963 2.1819-9.7144-4.2567-19.437-8.509-29.025-13.042-0.1265-0.085 1.0751-1.874 1.2016-1.789z"/>
  <path d="m183.4 508.32c10.04 3.4075 19.672 7.8331 29.204 12.444 6.9481 3.65 3.6663 1.8513 9.8622 5.3655 0.13995 0.11201-1.4441 2.0912-1.584 1.9792-6.2261-3.3419-2.9398-1.6163-9.8691-5.1576-9.4346-4.5391-18.944-8.9103-28.676-12.782-0.13072-0.0751 0.93171-1.9238 1.0624-1.8487z"/>
  <path d="m185.42 502.26c10.22 2.6266 19.892 6.8903 29.6 10.946 5.8907 2.5697 11.764 5.1631 17.785 7.4142 0.14177 0.0843-1.05 2.0892-1.1918 2.0049-6.1616-2.0505-12.14-4.5556-18.091-7.1511-9.631-4.0197-19.195-8.2296-29.165-11.365-0.13072-0.0751 0.93171-1.9238 1.0624-1.8487z"/>
  <path d="m189.46 494.18c9.5646 3.2324 19.039 6.6998 28.462 10.322 4.4646 1.7777 8.832 3.7736 13.158 5.8602 0.13883 0.0983-1.2508 2.0616-1.3897 1.9633-4.3576-1.9387-8.7386-3.8234-13.181-5.5621-9.3741-3.5692-18.786-7.0456-28.113-10.735-0.13072-0.0751 0.93171-1.9238 1.0624-1.8487z"/>
  <path d="m187.83 484.25c11.488 3.9562 22.649 8.7877 33.705 13.807 6.7468 3.2486 3.5981 1.7508 9.4408 4.5048 0.14384 0.10003-1.2708 2.1341-1.4147 2.0341-5.9787-2.5859-2.7777-1.1669-9.5902-4.2852-11.015-4.9187-22.099-9.6837-33.281-14.212-0.13069-0.0806 1.0093-1.9288 1.14-1.8482z"/>
  <path d="m196.21 479.16c7.6462 2.1859 14.955 5.3084 22.21 8.5252 0.1455 0.0983-1.2443 2.1559-1.3898 2.0576-7.2263-3.0438-14.449-6.0953-21.87-8.6436-0.13713-0.0742 0.91261-2.0134 1.0497-1.9392z"/>
  <path d="m191.59 466.14c8.5923 4.1594 17.333 7.9961 26.038 11.912 5.0633 2.3189 2.7184 1.2648 7.0284 3.1764 0.13846 0.092-1.1631 2.0502-1.3016 1.9582-4.4414-1.7805-2.0423-0.78543-7.1837-3.0172-8.7423-3.8396-17.496-7.6891-25.86-12.314-0.12125-0.0904 1.1575-1.8051 1.2788-1.7147z"/>
  <path d="m185.42 455.8c10.579 2.8102 20.871 6.5527 31.192 10.166 5.045 1.8326 10.002 3.8913 14.996 5.8543 0.14696 0.0907-1.1353 2.169-1.2822 2.0783-5.0558-1.8083-10.059-3.7509-15.111-5.5714-10.272-3.5996-20.51-7.2949-30.857-10.679-0.13072-0.0751 0.93171-1.9238 1.0624-1.8487z"/>
  <path d="m185.09 447.29c12.384 5.9495 24.737 11.964 37.125 17.906 4.9947 2.3242 9.8329 4.9478 14.6 7.7012 0.13418 0.10722-1.3821 2.0048-1.5162 1.8976-4.8574-2.5459-9.7513-5.0213-14.743-7.2966-12.424-5.8722-24.794-11.882-36.846-18.492-0.12137-0.0976 1.2589-1.814 1.3803-1.7164z"/>
  <path d="m195.19 444.26c11.52 6.2294 22.631 13.174 34.07 19.552 5.7538 3.0449 3.1048 1.7462 7.9054 3.9798 0.13938 0.0952-1.2063 2.0663-1.3457 1.9712-5.0667-2.1022-2.2991-0.86229-8.2527-3.8297-11.499-6.2352-22.612-13.115-33.757-19.957-0.12136-0.0976 1.2589-1.814 1.3803-1.7164z"/>
  <path d="m187.83 432.74c12.048 4.3314 23.585 9.9859 35.015 15.722 4.3838 2.1985 8.741 4.4383 12.987 6.8926 0.13049 0.10298-1.3258 1.9484-1.4563 1.8454-4.3763-2.2116-8.802-4.3205-13.198-6.4931-11.381-5.6067-22.781-11.217-34.487-16.118-0.13069-0.0806 1.0093-1.9288 1.14-1.8482z"/>
  <path d="m191.87 424.65c11.782 4.645 22.507 11.482 32.953 18.549 3.8487 2.5603 7.4392 5.4628 10.949 8.4603 0.11189 0.11952-1.5784 1.7018-1.6903 1.5823-3.6602-2.7425-7.3106-5.5015-11.132-8.0202-10.354-6.8691-20.882-13.569-32.219-18.723-0.13069-0.0806 1.0093-1.9288 1.14-1.8482z"/>
  <path d="m189.21 412.7c13.12 5.9031 24.759 14.489 36.352 22.889 4.105 2.8581 7.8364 6.177 11.603 9.4493 0.10678 0.10487-1.3763 1.6149-1.483 1.5101-4.275-2.6086-7.8025-6.346-12.099-8.936-11.51-8.1882-22.959-16.596-35.568-23.052-0.13154-0.0845 1.0633-1.9448 1.1949-1.8603z"/>
  <path d="m191.63 406.27c10.523 3.9413 20.023 10.044 29.158 16.488 3.6833 2.69 7.2186 5.5714 10.774 8.4255 0.11582 0.12015-1.5834 1.758-1.6992 1.6379-3.6444-2.7079-7.2508-5.4664-10.932-8.1247-8.9841-6.2282-18.237-12.175-28.303-16.526-0.13444-0.0709 0.86772-1.9721 1.0022-1.9012z"/>
  <path d="m189.93 397.6c12.104 5.7881 23.597 12.786 35.038 19.773 0.15049 0.12906-1.6747 2.2573-1.8252 2.1283-11.418-6.8625-22.83-13.755-34.515-20.155-0.12349-0.0921 1.179-1.8385 1.3024-1.7464z"/>
  <path d="m221.79 537.62c12.758 4.4134 25.329 9.3693 37.955 14.15 0.17874 0.11125-1.3946 2.639-1.5733 2.5277-12.541-4.7947-25.013-9.7584-37.444-14.829-0.13072-0.0751 0.93171-1.9238 1.0624-1.8487z"/>
  <path d="m287.33 573.12c-4.4983-1.3294-9.0337-2.459-13.594-3.5523-2.2686-0.46371-4.5657-0.65873-6.854-1.015-2.4492-0.98796-5.06-1.1756-7.6302-1.6004-3.1909-0.3957-6.3511-0.8944-9.5201-1.4393-3.1646-0.62616-6.1527-1.8397-9.1602-2.9663-2.5988-1.1452-5.3738-1.7664-8.0562-2.6619-1.9716-0.81015-4.0914-0.85623-6.1502-1.2854-1.985-0.43591-3.8-1.2969-5.8344-1.5455-2.2279 2e-3 -4.3502-0.69272-6.454-1.335-3.2454-0.87307-6.4742-1.8055-9.7031-2.738-4.4127-1.5701-8.9208-2.805-13.502-3.7666-4.4306-1.0887-8.8291-2.3121-13.244-3.4694-3.67-0.9304-7.3637-1.7224-11.069-2.4938-3.086-0.65435-6.0017-1.8151-8.9305-2.9534-2.4098-1.1271-4.8113-2.2992-7.3317-3.1567-2.6335-0.98585-5.4022-1.6541-8.1574-2.221-1.9182-0.11416-3.8014-0.3904-5.608-1.0673-1.8586-1.0061-3.9196-0.94969-5.9345-1.2597-2.0113-0.55149-4.1137-0.46748-6.1415-0.85414-2.2804-0.49934-4.5292-1.1205-6.8068-1.6312-1.9034-0.45168-3.8226-0.33-5.7444-0.1423-2.1237 0.27117-4.2631 0.29051-6.3999 0.24597-2.0482-0.16546-4.1466 0.13375-6.1506-0.34809-0.13589-0.0613 0.73094-1.9831 0.86684-1.9218 1.9211 0.30871 3.9062 0.0566 5.8436 0.22166 1.7147 0.0274 3.4324 0.0372 5.1364-0.19417 2.4596-0.27353 4.9382-0.39437 7.3693 0.18902 2.2383 0.52841 4.449 1.1621 6.704 1.6214 2.0233 0.30826 4.0904 0.33463 6.0909 0.82839 2.145 0.2714 4.2873 0.4276 6.2593 1.4302 1.7513 0.59979 3.5643 0.73925 5.3936 0.92856 2.8386 0.58955 5.6904 1.2518 8.3903 2.3186 2.5105 0.93613 4.9373 2.0686 7.3758 3.1766 2.8369 1.0952 5.6756 2.1779 8.6643 2.7987 3.7489 0.74739 7.4848 1.5323 11.191 2.4721 4.3911 1.1403 8.7523 2.4002 13.173 3.4162 4.6183 0.99539 9.1562 2.2832 13.609 3.8657 3.2305 0.95081 6.4576 1.9109 9.6979 2.8274 2.013 0.65044 4.0558 1.175 6.1865 1.2328 2.0395 0.34017 3.9067 1.1636 5.9198 1.5892 2.1298 0.41346 4.3221 0.49878 6.3534 1.3485 2.72 0.86801 5.5112 1.5288 8.1355 2.6781 2.9025 1.0837 5.7911 2.2405 8.8519 2.81 3.1622 0.53449 6.3254 0.99503 9.501 1.4389 2.573 0.39972 5.1422 0.74172 7.6048 1.6427 2.3345 0.3653 4.6891 0.4933 7.0036 0.98037 4.6442 0.9883 9.223 2.1517 13.716 3.7086 0.13073 0.0751-0.93171 1.9238-1.0624 1.8487z"/>
  <path d="m80.439 494.72c7.9198 6.212 14.786 13.575 21.407 21.115 4.0856 5.1197 2.24 2.6763 5.5842 7.2943 0.0881 0.14669-1.9865 1.3928-2.0746 1.2461-3.4428-4.4236-1.5612-2.0708-5.6752-7.034-6.5764-7.4014-13.327-14.646-20.799-21.163-0.10314-0.11011 1.4541-1.5687 1.5572-1.4586z"/>
  <path d="m76.164 489.34c7.2834-3.593 14.593-7.1211 21.701-11.054 9.6259-5.329 18.543-11.799 27.691-17.881 8.7394-5.6526 17.788-10.81 27.134-15.387 4.3998-2.0105 8.605-4.2761 12.558-7.0544 2.517-1.8232 4.9409-3.7683 7.5019-5.5292 1.4028-0.97021 2.835-1.8619 4.0933-3.016 0.7836-0.97922 1.5609-1.9623 2.4461-2.8534 0.76352-0.90417 1.7255-1.6081 2.6414-2.3466 0.1034-0.10948 1.6516 1.3528 1.5482 1.4623-0.88808 0.69065-1.8533 1.3164-2.5628 2.202-0.95386 0.83846-1.6862 1.8906-2.4802 2.874-1.3208 1.1943-2.6951 2.2739-4.2054 3.2348-2.5414 1.7742-4.9512 3.7238-7.449 5.5592-4.0025 2.8458-8.1852 5.3282-12.646 7.4105-9.1935 4.6595-18.122 9.8197-26.802 15.379-9.2204 6.0848-18.215 12.55-27.881 17.929-7.1608 3.9405-14.501 7.5508-22.009 10.785-0.12125 0.0904-1.4-1.6243-1.2788-1.7147z"/>
  <path d="m87.541 490.04c11.244-8.0738 23.309-14.858 35.501-21.367 16.045-8.2828 32.316-16.118 48.09-24.916 6.0098-3.2375 11.854-6.7281 17.425-10.669 0.10724-0.11112 1.6788 1.4054 1.5715 1.5166-5.2898 4.4338-11.251 7.9071-17.235 11.315-15.676 8.9975-31.912 16.929-48.018 25.119-12.239 6.402-24.297 13.126-35.893 20.645-0.11622 0.10205-1.5594-1.5416-1.4432-1.6436z"/>
  <path d="m84.372 499.29c10.945-6.2946 21.707-12.897 32.576-19.321 16.01-9.4403 32.435-18.146 49.1-26.366 7.3666-3.6087 14.821-7.0477 22.417-10.147 0.11738-0.0901 1.3921 1.5699 1.2747 1.66-1.7182 1.1022-3.562 1.913-5.4117 2.7752-5.5618 2.5925-11.1 5.2321-16.58 7.9944-16.534 8.3476-32.885 17.056-48.91 26.348-10.976 6.3366-21.803 12.954-33.093 18.729-0.11821 0.0971-1.4907-1.5747-1.3725-1.6718z"/>
  <path d="m92.797 504.14c11.793-7.6298 23.786-14.932 35.827-22.162 16.565-9.8877 33.478-19.147 50.782-27.668 4.5746-2.3139 9.2591-4.3943 13.962-6.4304 0.13575-0.0965 1.5009 1.8232 1.3652 1.9197-4.5354 2.2762-9.1169 4.4585-13.614 6.8109-17.153 8.6661-33.997 17.908-50.563 27.651-12.145 7.1676-24.194 14.498-36.379 21.596-0.12137 0.0976-1.5017-1.6188-1.3803-1.7164z"/>
  <path d="m93.392 512.3c10.811-8.3334 22.338-15.662 33.856-22.963 15.349-9.6139 31.283-18.218 47.619-26.02 3.3544-1.5762 6.6789-3.2075 10.125-4.5729 0.13031-0.0887 1.3846 1.7542 1.2543 1.8429-3.2858 1.5839-6.4996 3.3078-9.7731 4.9173-16.091 8.0595-31.919 16.627-47.236 26.091-11.582 7.2063-23.127 14.47-34.33 22.261-0.11004 0.1072-1.6261-1.449-1.516-1.5562z"/>
  <path d="m93.807 520.31c12.327-8.0172 24.279-16.595 36.49-24.789 10.831-7.099 21.533-14.451 32.747-20.947 4.2325-2.4516 7.6535-4.1708 11.934-6.391 3.0494-1.5656 6.136-2.8916 9.4752-3.6311 0.14224-0.0671 1.0912 1.9445 0.94897 2.0116-3.1318 0.7484-5.9482 2.2209-8.8026 3.7024-3.9224 2.1341-7.8205 4.2121-11.661 6.4999-11.099 6.6114-21.734 13.979-32.569 21.003-12.346 8.1521-24.418 16.768-37.182 24.257-0.12137 0.0976-1.5017-1.6188-1.3803-1.7164z"/>
  <path d="m100.03 526.57c0.66779-0.64862 1.3016-1.3342 2.0034-1.9458 2.2422-1.9541 6.2292-4.973 8.4421-6.6312 7.1675-5.3712 14.477-10.531 21.82-15.658 14.8-10.144 29.762-20.123 45.444-28.864 4.7486-2.3541 2.5662-1.3938 6.4985-2.9889 0.13445-0.0909 1.4205 1.8104 1.2861 1.9014-3.6586 1.6944-1.6071 0.68334-6.1082 3.1258-15.392 9.0617-30.215 19.063-45.024 29.036-7.3911 5.0435-14.753 10.123-22.042 15.314-1.2475 0.88853-6.9212 4.9612-8.552 6.2425-0.71669 0.56307-1.382 1.1887-2.0729 1.7831-0.093 0.11987-1.7882-1.1951-1.6953-1.315z"/>
  <path d="m107.47 530.37c10.685-9.7748 22.474-18.212 34.272-26.567 13.174-8.9883 26.62-17.653 40.92-24.753 3.5208-1.551 1.9865-0.9308 4.5742-1.9297 0.12778-0.0871 1.3596 1.72 1.2318 1.8071-2.3806 1.1795-0.95481 0.46982-4.2736 2.1369-13.964 7.4409-27.283 16.027-40.377 24.893-11.821 8.2808-23.551 16.696-34.712 25.859-0.1023 0.11565-1.7378-1.331-1.6355-1.4467z"/>
  <path d="m131.03 521.94c11.112-10.356 23.498-19.196 36.021-27.742 5.5434-3.7788 11.094-7.5602 16.973-10.802 0.12149-0.10343 1.5842 1.6146 1.4627 1.7181-5.555 3.6242-11.01 7.3942-16.443 11.198-12.449 8.5591-24.724 17.381-36.318 27.082-0.10284 0.11986-1.7979-1.3344-1.6951-1.4543z"/>
  <path d="m131.72 531.77c7.4224-4.2816 13.905-9.9909 20.707-15.159 2.249-1.7086 4.5324-3.3714 6.7985-5.0571 6.4669-4.7845 13.269-9.0724 20.098-13.31 0.14589-0.12885 1.9682 1.9344 1.8223 2.0632-6.7174 4.2942-13.431 8.6004-19.885 13.288-10.676 7.768-2.958 2.0876-12.932 9.5859-4.2605 3.2031-8.5135 6.5019-13.135 9.1835-0.71072 0.41238-1.4638 0.74701-2.1957 1.1205-0.12125 0.0904-1.4-1.6243-1.2788-1.7147z"/>
  <path d="m146.56 531.72c7.0692-5.7214 14.461-11.031 21.893-16.268l4.0131-2.6809c0.12966-0.12114 1.8428 1.7126 1.7131 1.8337l-3.9344 2.7021c-7.4061 5.2484-14.768 10.559-22.127 15.872-0.10313 0.11011-1.6604-1.3485-1.5572-1.4586z"/>
  <path d="m149.59 537.78c7.7504-6.1448 15.397-12.42 23.07-18.662l4.3839-3.5134c0.12457-0.13444 2.0258 1.6272 1.9012 1.7617l-4.331 3.5503c-7.6697 6.2955-15.372 12.576-23.467 18.322-0.10313 0.11012-1.6604-1.3484-1.5572-1.4586z"/>
  <path d="m163.3 535.49c6.0659-4.0447 12.111-8.1158 18.241-12.063 0.12964-0.11768 1.7938 1.7157 1.6642 1.8334-6.1021 4.0366-12.165 8.1438-18.462 11.873-0.11622 0.10205-1.5594-1.5416-1.4432-1.6436z"/>
  <path d="m173.35 538.8c3.8254-1.7681 7.6456-3.5429 11.424-5.4095 0.13481-0.10022 1.5521 1.8063 1.4173 1.9065-3.8119 1.9111-7.675 3.716-11.64 5.292-0.1265 0.085-1.3281-1.7041-1.2016-1.789z"/>
  <path d="m182.23 542.88c4.8214-3.0707 9.631-6.153 14.545-9.0746 0.12972-0.11008 1.6864 1.7246 1.5567 1.8346-4.9498 2.9707-9.8042 6.1024-14.823 8.9547-0.12125 0.0904-1.4-1.6243-1.2788-1.7147z"/>
  <path d="m190.52 541.83c3.6149-1.7041 7.3661-3.0891 11.029-4.6872 0.13633-0.0936 1.4593 1.8344 1.323 1.928-3.6678 1.6466-7.4189 3.0562-11.15 4.5482-0.1265 0.085-1.3281-1.7041-1.2016-1.789z"/>
  <path d="m197.38 541.87 1.7915-0.86006c0.12889-0.0896 1.396 1.7332 1.2672 1.8228l-1.7799 0.75198c-0.12124 0.0904-1.4-1.6243-1.2788-1.7147z"/>
  <path d="m199.31 546.81c3.6489-2.5934 7.4147-5.0193 11.176-7.4455 0.12591-0.11334 1.7287 1.6673 1.6028 1.7806-3.7633 2.4315-7.5096 4.8888-11.322 7.2434-0.11162 0.103-1.5683-1.4756-1.4566-1.5786z"/>
  <path d="m206.58 547.02c2.2056-0.92058 4.3834-1.9031 6.5817-2.8414 0.13551-0.0901 1.4098 1.8263 1.2743 1.9164-2.2571 0.94191-4.4952 1.9351-6.7936 2.7736-0.13073 0.0751-1.1932-1.7736-1.0624-1.8487z"/>
  <path d="m212.03 550.01c4.1411-1.3256 8.2753-2.6499 12.467-3.8102 0.14869-0.0774 1.243 2.0253 1.0943 2.1027-4.2123 1.1844-8.3775 2.5252-12.605 3.6513-0.13746 0.0676-1.0936-1.8763-0.9561-1.9439z"/>
  <path d="m223.75 552.08c3.3062-1.2777 6.6775-2.3876 10.038-3.5136 0.14114-0.0818 1.2979 1.9142 1.1568 1.996-3.3695 1.1501-6.7434 2.2778-10.133 3.3664-0.13072 0.0751-1.1932-1.7736-1.0624-1.8487z"/>
  <path d="m231.03 553.06c4.0641-1.5375 8.0706-3.1948 12.242-4.4269 0.13995-0.076 1.2146 1.9032 1.0747 1.9792-4.1659 1.2843-8.1729 2.9941-12.314 4.3489-0.13443 0.0709-1.1366-1.8304-1.0022-1.9012z"/>
  <path d="m238.91 558.14c2.4418-1.0223 1.1424-0.4891 3.901-1.5923 0.13513-0.0852 1.3406 1.8257 1.2055 1.9109l-4.0441 1.5301c-0.13072 0.0751-1.1932-1.7736-1.0624-1.8487z"/>
  <path d="m246.38 561.12c3.2352-0.82134 1.5386-0.41715 5.0932-1.1984 0.1487-0.0673 1.1011 2.0356 0.95238 2.103-3.5379 0.70852-1.8416 0.36092-5.0895 1.0393-0.13745 0.0676-1.0936-1.8763-0.9561-1.9439z"/>
  <path d="m255.38587,562.27472c4.49744-.89636 9.05792-.94231 13.56761-.15988 1.01342.28545 2.04146.4247 3.08594.51484 .1419.0503-.57006,2.0571-.71196,2.00676-1.06547-.13392-2.12222-.30026-3.17738-.50168-3.99954-.52231-7.99532-.51168-11.98733.13983-.14141.0549-.91829-1.94494-.77688-1.99987z"/>
  <path d="m241.09 539.88c6.8767 2.7251 13.667 5.6659 20.475 8.5564 0.1649 0.11155-1.4128 2.4437-1.5777 2.3321-6.7572-2.9872-13.514-5.9794-20.176-9.1739-0.12125-0.0904 1.1575-1.8051 1.2788-1.7147z"/>
  <path d="m220.78 530.55c4.8586 1.6017 9.357 4.1521 13.744 6.7478 0.12775 0.10661-1.3798 1.9133-1.5076 1.8067-4.2975-2.477-8.6531-4.937-13.298-6.7057-0.13073-0.0751 0.93171-1.9238 1.0624-1.8487z"/>
  <path d="m261.57 553.32c1.0054 0.0447 2.0157 0.0247 3.0161 0.13395 8.1794 0.89291 17.201 4.0457 24.98 6.6441 6.8875 2.5229 3.5974 1.3114 9.8711 3.6315 0.15204 0.0913-1.139 2.2415-1.2911 2.1502-6.3253-2.2013-3.025-1.0397-9.8984-3.4912-8.5414-2.8559-17.179-5.8274-26.145-6.9918-0.14686 0.0377-0.6801-2.0391-0.53325-2.0768z"/>
  <path d="m323.86 578.2c4.2584-2.0293 8.6403-3.7798 12.968-5.6538 0.14479-0.0973 1.5206 1.9504 1.3758 2.0477-4.3599 1.8511-8.7657 3.583-13.142 5.3952-0.12651 0.085-1.3281-1.7041-1.2016-1.789z"/>
  <path d="m317.7 570.26c7.2437-2.5435 14.523-4.9803 21.754-7.5609 0.16157-0.0962 1.5214 2.1887 1.3599 2.2849-7.29 2.5547-14.633 4.9734-22.052 7.1248-0.13073 0.0751-1.1932-1.7736-1.0624-1.8487z"/>
 </g>
</svg>
